# xmcd
#
# Track frame offsets: 
#        150
#        10770
#        25257
#        39392
#        53855
#        67332
#        80305
#        92342
#        104292
#        118125
#
# Disc length: 1769 seconds
#
# Revision: 4
# Processed by: cddbd v1.5.2PL0 Copyright (c) Steve Scherf et al.
# Submitted via: ExactAudioCopy v0.99pb5
#
DISCID=7806e70a
DTITLE=José Alfredo Jiménez - Tesoros de colección [CD 2)
DYEAR=2004
DGENRE=Other
TTITLE0=Muy despacito
TTITLE1=Llegando a ti
TTITLE2=Cuando sale la luna
TTITLE3=Tú y las nubes
TTITLE4=Serenata huasteca
TTITLE5=Cuando el destino
TTITLE6=Amor del alma
TTITLE7=¿Te vas o te quedas?
TTITLE8=Una noche de julio
TTITLE9=Virgencita de Zapopan
EXTD=YEAR: 2004
EXTT0=
EXTT1=
EXTT2=
EXTT3=
EXTT4=
EXTT5=
EXTT6=
EXTT7=
EXTT8=
EXTT9=
PLAYORDER=
